<?xml version="1.0" encoding="iso-8859-1"?>
<!-- Uploaded to: SVG Repo, www.svgrepo.com, Generator: SVG Repo Mixer Tools -->
<svg fill="#000000" height="800px" width="800px" version="1.1" id="Layer_1" xmlns="http://www.w3.org/2000/svg" xmlns:xlink="http://www.w3.org/1999/xlink" 
	 viewBox="0 0 501.462 501.462" xml:space="preserve">
<g>
	<g>
		<path d="M422.144,69.353c-48.32-46.4-113.28-71.36-180.267-69.227C112.384,4.713,6.891,114.153,5.398,244.713
			c0,0.213,0,0.427,0,0.64c0,0.213,0,0.213,0,0.427c0,0.64,0,1.173,0,1.813V345.3c0,16.533,14.72,28.16,35.947,28.16h41.813
			c24.427,0,39.573-15.04,39.573-39.253V278.42c0-25.707-16.32-43.627-39.573-43.627h-56
			c6.613-114.667,100.8-209.067,215.573-213.227c61.227-2.347,120.747,20.48,164.587,63.253
			c41.707,40.213,65.493,93.227,67.307,149.973h-56.213c-23.36,0-39.573,17.92-39.573,43.627v55.787
			c0,24.213,15.147,39.253,39.573,39.253h23.147c-12.587,19.627-64.32,90.133-158.827,95.467
			c-0.213-18.453-15.893-33.173-34.667-31.787c-16,1.173-28.907,14.4-29.76,30.4c-0.96,18.773,14.08,34.133,32.533,33.92
			c9.067-0.107,17.6-3.947,23.68-10.773c127.893-1.6,186.347-107.627,188.8-112.213c0.853-1.6,1.173-3.52,1.067-5.333
			c18.88-1.493,31.68-12.48,31.68-27.84V242.046C496.064,176.66,469.824,115.433,422.144,69.353z M83.158,256.02
			c16.96,0,18.24,17.067,18.24,22.293V334.1c0,12.373-5.653,17.92-18.24,17.92H41.344c-4.053,0-14.613-1.173-14.613-6.827V256.02
			H83.158z M250.731,480.02c-5.867,0-10.667-4.8-10.667-10.667c0-5.867,4.8-10.667,10.667-10.667c5.867,0,10.667,4.8,10.667,10.667
			C261.398,475.22,256.598,480.02,250.731,480.02z M474.731,345.193c0,5.547-10.56,6.827-14.507,6.827h-41.813
			c-12.693,0-18.24-5.547-18.24-17.92v-55.787c0-5.227,1.28-22.293,18.24-22.293h56.32V345.193z"/>
	</g>
</g>
</svg>